name not saved
datacolumns 19
datarows 29
range 21.702 21.73
endheader
time	ground_force1_vx	ground_force1_vy	ground_force1_vz	ground_force1_px	ground_force1_py	ground_force1_pz	ground_force2_vx	ground_force2_vy	ground_force2_vz	ground_force2_px	ground_force2_py	ground_force2_pz	ground_torque1_x	ground_torque1_y	ground_torque1_z	ground_torque2_x	ground_torque2_y	ground_torque2_z
21.702	-23.16684257	486.9436088	-2.556633897	0.0388272612	0	0.2204561154	7.077176635	434.4263739	22.19741258	0.02805449831	0	-0.2997287771	0	6.723678264	0	0	1.543191935	0
21.703	-23.21931108	487.2220432	-2.681585499	0.03901621093	0	0.2202990393	6.96718152	433.8804156	22.25703972	0.02838798642	0	-0.2997581331	0	6.68793745	0	0	1.548572425	0
21.704	-23.27094086	487.5059388	-2.806581914	0.03920118263	0	0.2201425389	6.854650311	433.3330054	22.31518237	0.02872398456	0	-0.2997876899	0	6.652036229	0	0	1.553439866	0
21.705	-23.32171056	487.7953134	-2.931616239	0.03938215615	0	0.2199866301	6.739561818	432.7843454	22.37185403	0.0290624962	0	-0.2998174524	0	6.615977213	0	0	1.557784978	0
21.706	-23.37159801	488.0901817	-3.056681815	0.03955911263	0	0.2198313281	6.621897741	432.2346369	22.42706822	0.02940352184	0	-0.2998474249	0	6.579762836	0	0	1.561599	0
21.707	-23.42058027	488.390555	-3.181772228	0.03973203454	0	0.2196766474	6.501642714	431.6840811	22.48083845	0.02974705896	0	-0.2998776117	0	6.543395354	0	0	1.564873693	0
21.708	-23.46863362	488.6964413	-3.306881314	0.03990090569	0	0.2195226024	6.378784356	431.1328782	22.53317814	0.03009310206	0	-0.2999080165	0	6.506876834	0	0	1.567601362	0
21.709	-23.51573354	489.0078455	-3.432003161	0.04006571123	0	0.2193692066	6.253313309	430.5812279	22.58410067	0.03044164258	0	-0.2999386429	0	6.47020916	0	0	1.569774859	0
21.71	-23.56185478	489.3247689	-3.55713212	0.04022643771	0	0.2192164731	6.125223275	430.0293286	22.63361928	0.03079266888	0	-0.2999694939	0	6.433394027	0	0	1.571387599	0
21.711	-23.60697131	489.6472098	-3.682262806	0.04038307308	0	0.2190644143	5.994511046	429.4773776	22.68174707	0.03114616627	0	-0.3000005722	0	6.396432939	0	0	1.572433567	0
21.712	-23.65105636	489.9751629	-3.807390111	0.0405356067	0	0.2189130423	5.861176534	428.9255712	22.72849699	0.03150211696	0	-0.3000318802	0	6.359327205	0	0	1.572907325	0
21.713	-23.69408246	490.3086196	-3.932509206	0.0406840294	0	0.2187623684	5.725222789	428.374104	22.77388174	0.03186050008	0	-0.3000634197	0	6.32207794	0	0	1.572804022	0
21.714	-23.73602138	490.6475679	-4.057615555	0.04082833348	0	0.2186124033	5.586656016	427.8231689	22.81791385	0.03222129167	0	-0.3000951921	0	6.284686059	0	0	1.5721194	0
21.715	-23.77684423	490.9919925	-4.182704923	0.04096851273	0	0.2184631574	5.445485589	427.2729574	22.86060553	0.03258446472	0	-0.3001271985	0	6.247152275	0	0	1.570849801	0
21.716	-23.81652144	491.3418747	-4.307773387	0.04110456247	0	0.2183146402	5.301724055	426.7236588	22.90196874	0.03294998912	0	-0.3001594394	0	6.2094771	0	0	1.568992167	0
21.717	-23.85502277	491.6971923	-4.432817346	0.04123647957	0	0.2181668606	5.155387143	426.1754605	22.9420151	0.03331783174	0	-0.3001919149	0	6.171660837	0	0	1.566544052	0
21.718	-23.89231735	492.0579198	-4.557833533	0.04136426247	0	0.2180198272	5.006493756	425.6285477	22.98075591	0.03368795642	0	-0.3002246246	0	6.133703583	0	0	1.563503617	0
21.719	-23.92837371	492.4240285	-4.682819024	0.04148791122	0	0.2178735476	4.855065971	425.0831031	23.01820207	0.03406032401	0	-0.3002575677	0	6.095605222	0	0	1.559869639	0
21.72	-23.96315979	492.7954859	-4.807771252	0.04160742746	0	0.2177280291	4.701129025	424.5393072	23.05436412	0.03443489239	0	-0.3002907428	0	6.057365428	0	0	1.555641507	0
21.721	-23.99664296	493.1722565	-4.932688017	0.04172281452	0	0.217583278	4.544711304	423.9973376	23.08925216	0.03481161653	0	-0.3003241481	0	6.01898366	0	0	1.550819226	0
21.722	-24.02879006	493.5543013	-5.057567497	0.04183407736	0	0.2174393003	4.385844321	423.4573692	23.12287586	0.03519044849	0	-0.3003577813	0	5.980459163	0	0	1.545403415	0
21.723	-24.05956742	493.9415779	-5.182408254	0.04194122265	0	0.2172961013	4.2245627	422.9195742	23.15524446	0.03557133753	0	-0.3003916395	0	5.941790964	0	0	1.539395306	0
21.724	-24.08894089	494.3340407	-5.307209252	0.04204425876	0	0.2171536854	4.060904142	422.3841216	23.1863667	0.03595423008	0	-0.3004257193	0	5.902977874	0	0	1.532796741	0
21.725	-24.11687586	494.7316407	-5.431969857	0.04214319579	0	0.2170120568	3.894909402	421.8511772	23.21625086	0.03633906987	0	-0.300460017	0	5.864018491	0	0	1.525610172	0
21.726	-24.1433373	495.1343257	-5.556689849	0.04223804558	0	0.2168712186	3.726622247	421.3209036	23.24490472	0.03672579793	0	-0.3004945282	0	5.824911194	0	0	1.517838655	0
21.727	-24.16828978	495.5420402	-5.681369428	0.04232882173	0	0.2167311736	3.556089426	420.7934599	23.27233555	0.0371143527	0	-0.3005292479	0	5.78565415	0	0	1.509485844	0
21.728	-24.19169753	495.9547255	-5.806009219	0.0424155396	0	0.2165919237	3.383360622	420.2690019	23.29855012	0.03750467004	0	-0.300564171	0	5.746245314	0	0	1.500555989	0
21.729	-24.21352441	496.3723196	-5.930610276	0.04249821633	0	0.2164534705	3.208488406	419.7476816	23.32355469	0.03789668336	0	-0.3005992913	0	5.706682434	0	0	1.491053931	0
21.73	-24.23373399	496.7947574	-6.055174085	0.04257687086	0	0.2163158146	3.031528191	419.2296472	23.347355	0.03829032365	0	-0.3006346027	0	5.666963053	0	0	1.480985091	0
